# xmcd
#
# Track frame offsets:
#	150
#	11647
#	28834
#	43789
#	60020
#	77450
#	92704
#	118811
#	133104
#	151458
#	163312
#	181540
#	195492
#	213946
#	231889
#
# Disc length: 3295
#
# Revision: 1
# Processed by: cddbd v1.5.2PL0 Copyright (c) Steve Scherf et al.
# Submitted via: kJams Lite (development) 1.0patch49.47
#
DISCID=bc0cdd0f
DTITLE=Various Artist - CB60174
DYEAR=2000
DGENRE=Karaoke
TTITLE0=Montgomery, John Michael - Hello L.O.V.E.
TTITLE1=Strait, George - Write This Down
TTITLE2=Evans, Sara - Fool, I'm A Woman
TTITLE3=Strait, George - I Look At You
TTITLE4=Carpenter, Mary Chapin - Almost Home
TTITLE5=Strait, George - Peace Of Mind
TTITLE6=Hill, Faith - Somebody Stand By Me
TTITLE7=Strait, George - What Do You Say To That
TTITLE8=Hill, Faith - Hard Way, The
TTITLE9=Strait, George - One Of You
TTITLE10=Hill, Faith - Me
TTITLE11=Strait, George - Always Never The Same
TTITLE12=Messina, Jo Dee - Even God Must Get The Blues
TTITLE13=Kinleys, The - Crazy Kind Of Love Thing
TTITLE14=Wilkinsons, The - Yodelin' Blues, The
EXTD=
EXTT0=
EXTT1=
EXTT2=
EXTT3=
EXTT4=
EXTT5=
EXTT6=
EXTT7=
EXTT8=
EXTT9=
EXTT10=
EXTT11=
EXTT12=
EXTT13=
EXTT14=
PLAYORDER=
